<svg width="260" height="260" viewBox="0 0 260 260" fill="none" xmlns="http://www.w3.org/2000/svg">
<path d="M64.9865 47.4357C63.3564 47.4357 61.7806 47.7617 60.3135 48.4137C58.8465 49.0658 57.5424 49.9352 56.4556 51.0219C55.3689 52.1086 54.4995 53.4127 53.8475 54.8798C53.1955 56.3469 52.8694 57.9226 52.8694 59.5527V96.1212C52.8694 97.7512 53.1955 99.327 53.8475 100.794C54.4995 102.261 55.3689 103.565 56.4556 104.652C57.5424 105.739 58.8465 106.608 60.3135 107.26C61.7806 107.912 63.3564 108.238 64.9865 108.238C67.7576 108.238 70.2028 107.369 72.3762 105.684C74.5497 103.946 75.9624 101.826 76.7231 99.2183L78.0816 98.6206L88.8402 104.869L89.3292 106.119C88.3512 108.564 87.0471 110.792 85.3626 112.802C83.6782 114.813 81.7764 116.552 79.6573 118.019C77.5382 119.486 75.2561 120.627 72.7566 121.388C70.2571 122.148 67.7033 122.529 64.9865 122.529C61.4003 122.529 57.9771 121.822 54.7712 120.464C51.5654 119.051 48.7399 117.204 46.4034 114.813C44.0126 112.422 42.1652 109.651 40.7524 106.445C39.3397 103.239 38.6876 99.816 38.6876 96.2298V59.6614C38.6876 56.0752 39.394 52.7063 40.7524 49.5005C42.1652 46.2946 44.0126 43.5234 46.4034 41.187C48.7942 38.7962 51.5654 36.9487 54.7712 35.536C57.9771 34.1232 61.4003 33.4712 64.9865 33.4712C67.7033 33.4712 70.2571 33.8516 72.7566 34.6123C75.2561 35.373 77.5382 36.514 79.6573 37.9268C81.7764 39.3395 83.6782 41.0783 85.3626 43.0888C87.0471 45.0992 88.3512 47.327 89.3292 49.7721L88.8402 51.0219L78.0816 57.2706L76.7231 56.6729C75.9624 54.0647 74.5497 51.8913 72.3762 50.2068C70.2571 48.2507 67.812 47.4357 64.9865 47.4357Z" fill="#ED6877"/>
<path d="M140.514 65.7472L129.375 89.4922H127.528L116.28 65.7472V119.703L115.302 120.681H103.185L102.207 119.703V36.0251L103.185 35.047H115.302L116.28 35.6447L128.397 61.3459L140.623 35.6447L141.492 35.047H153.718L154.696 36.0251V119.703L153.718 120.681H141.492L140.514 119.703V65.7472Z" fill="#ED6877"/>
<path d="M182.353 36.0251V96.2299C182.353 97.86 182.679 99.4358 183.331 100.903C183.983 102.37 184.853 103.674 185.939 104.761C187.026 105.847 188.33 106.717 189.797 107.315C191.264 107.912 192.84 108.238 194.47 108.238C196.1 108.238 197.676 107.912 199.143 107.315C200.61 106.717 201.914 105.847 203.001 104.761C204.088 103.674 204.957 102.37 205.609 100.903C206.261 99.4358 206.587 97.86 206.587 96.2299V36.0251L207.565 35.047H219.682L220.66 36.0251V96.2299C220.66 99.8161 219.954 103.185 218.596 106.391C217.183 109.597 215.336 112.368 212.945 114.704C210.554 117.095 207.783 118.943 204.631 120.355C201.425 121.714 198.057 122.42 194.47 122.42C190.884 122.42 187.461 121.714 184.255 120.355C181.049 118.943 178.224 117.095 175.887 114.704C173.496 112.314 171.649 109.542 170.236 106.391C168.823 103.239 168.171 99.8161 168.171 96.2299V36.0251L169.149 35.047H181.375L182.353 36.0251Z" fill="#F7FCFF"/>
<path d="M134.972 212.945C136.33 212.945 137.743 212.673 139.047 212.184C140.405 211.695 141.601 211.043 142.579 210.173C143.611 209.304 144.426 208.272 145.078 207.076C145.73 205.881 146.056 204.522 146.056 203.055C146.056 201.262 145.622 199.632 144.752 198.165C143.883 196.698 142.796 195.394 141.492 194.307C140.188 193.22 138.721 192.242 137.145 191.427C135.569 190.612 133.994 189.906 132.418 189.2C130.462 188.385 128.506 187.569 126.604 186.7C124.702 185.831 122.855 184.853 121.116 183.712C119.377 182.571 117.693 181.212 116.171 179.636C114.596 178.061 113.237 176.159 111.987 173.931C109.868 170.182 108.782 166.215 108.782 162.086C108.782 158.228 109.705 154.642 111.553 151.218C113.4 147.795 115.845 145.024 118.943 142.905C121.333 141.275 123.833 140.079 126.55 139.319C129.266 138.558 132.038 138.178 134.863 138.178C140.242 138.178 145.078 139.645 149.425 142.633C153.772 145.622 156.978 149.534 159.097 154.424L158.717 155.674L147.469 162.629L146.002 162.031C145.35 159.586 143.992 157.358 141.927 155.348C139.862 153.337 137.526 152.359 134.917 152.359C131.82 152.359 129.212 153.174 127.093 154.805C124.974 156.435 123.887 158.662 123.887 161.434C123.887 163.39 124.268 165.074 124.974 166.487C125.68 167.9 126.713 169.149 128.017 170.236C129.321 171.323 130.788 172.247 132.472 173.062C134.157 173.877 135.896 174.692 137.797 175.507C141.655 177.137 145.35 179.093 148.936 181.375C152.522 183.657 155.511 186.7 157.847 190.558C158.989 192.46 159.804 194.362 160.293 196.372C160.782 198.382 161.053 200.447 161.053 202.566C161.053 206.479 160.13 210.173 158.282 213.651C156.435 217.128 153.99 219.954 150.892 222.182C148.502 223.866 146.002 225.17 143.231 226.04C140.514 226.909 137.689 227.344 134.863 227.344C132.092 227.344 129.429 226.963 126.821 226.257C124.268 225.496 121.822 224.464 119.595 223.051C117.367 221.693 115.356 219.954 113.618 217.998C111.879 215.987 110.466 213.705 109.379 211.097L109.868 209.847L120.627 203.599L121.985 204.196C122.8 207.076 124.431 209.25 126.821 210.825C129.375 212.184 132.038 212.945 134.972 212.945Z" fill="#ED6877"/>
<path d="M194.09 165.237L205.12 140.405L206.098 139.808H219.411L220.28 141.166L201.208 184.255V224.518L200.23 225.496H188.004L187.026 224.518V184.201L167.954 141.112L168.823 139.753H182.299L183.168 140.351L194.09 165.237Z" fill="#F7FCFF"/>
<path d="M260 260H0V0H260V260ZM10.8673 249.133H249.133V10.8673H10.8673V249.133Z" fill="#ED6877"/>
<rect x="63.5273" y="171.22" width="15.8537" height="15.8537" transform="rotate(45 63.5273 171.22)" fill="#ED6877"/>
</svg>
