<svg width="89" height="89" viewBox="0 0 89 89" fill="none" xmlns="http://www.w3.org/2000/svg">
<path d="M22.2455 16.2376C21.6875 16.2376 21.1481 16.3492 20.6459 16.5724C20.1437 16.7956 19.6973 17.0932 19.3253 17.4652C18.9533 17.8372 18.6557 18.2836 18.4325 18.7858C18.2093 19.288 18.0977 19.8274 18.0977 20.3854V32.903C18.0977 33.461 18.2093 34.0004 18.4325 34.5026C18.6557 35.0048 18.9533 35.4512 19.3253 35.8232C19.6973 36.1952 20.1437 36.4928 20.6459 36.716C21.1481 36.9392 21.6875 37.0508 22.2455 37.0508C23.194 37.0508 24.031 36.7532 24.775 36.1766C25.519 35.5814 26.0026 34.856 26.263 33.9632L26.728 33.7586L30.4108 35.8976L30.5782 36.3254C30.2434 37.1624 29.797 37.925 29.2204 38.6132C28.6438 39.3014 27.9928 39.8965 27.2674 40.3987C26.542 40.9009 25.7608 41.2915 24.9052 41.5519C24.0496 41.8123 23.1755 41.9425 22.2455 41.9425C21.0179 41.9425 19.8461 41.7007 18.7487 41.2357C17.6513 40.7521 16.6841 40.1197 15.8843 39.3014C15.0659 38.483 14.4336 37.5344 13.95 36.437C13.4664 35.3396 13.2432 34.1678 13.2432 32.9402V20.4226C13.2432 19.195 13.485 18.0418 13.95 16.9444C14.4336 15.847 15.0659 14.8984 15.8843 14.0986C16.7027 13.2802 17.6513 12.6478 18.7487 12.1643C19.8461 11.6807 21.0179 11.4575 22.2455 11.4575C23.1755 11.4575 24.0496 11.5877 24.9052 11.8481C25.7608 12.1085 26.542 12.499 27.2674 12.9826C27.9928 13.4662 28.6438 14.0614 29.2204 14.7496C29.797 15.4378 30.2434 16.2004 30.5782 17.0374L30.4108 17.4652L26.728 19.6042L26.263 19.3996C26.0026 18.5068 25.519 17.7628 24.775 17.1862C24.0496 16.5166 23.2127 16.2376 22.2455 16.2376Z" fill="#ED6877"/>
<path d="M48.0992 22.5058L44.2862 30.6339H43.6538L39.8037 22.5058V40.9754L39.4689 41.3102H35.3211L34.9863 40.9754V12.3317L35.3211 11.9969H39.4689L39.8037 12.2015L43.9514 20.9992L48.1364 12.2015L48.434 11.9969H52.6189L52.9537 12.3317V40.9754L52.6189 41.3102H48.434L48.0992 40.9754V22.5058Z" fill="#ED6877"/>
<path d="M62.421 12.3317V32.9403C62.421 33.4983 62.5326 34.0376 62.7558 34.5398C62.9789 35.042 63.2765 35.4884 63.6485 35.8604C64.0205 36.2324 64.4669 36.53 64.9691 36.7346C65.4713 36.9392 66.0107 37.0508 66.5687 37.0508C67.1267 37.0508 67.6661 36.9392 68.1683 36.7346C68.6705 36.53 69.1169 36.2324 69.4889 35.8604C69.8609 35.4884 70.1585 35.042 70.3817 34.5398C70.6049 34.0376 70.7165 33.4983 70.7165 32.9403V12.3317L71.0513 11.9969H75.199L75.5338 12.3317V32.9403C75.5338 34.1678 75.292 35.321 74.827 36.4184C74.3434 37.5158 73.711 38.4644 72.8926 39.2642C72.0742 40.0826 71.1257 40.715 70.0469 41.1986C68.9495 41.6636 67.7963 41.9054 66.5687 41.9054C65.3411 41.9054 64.1693 41.6636 63.0719 41.1986C61.9746 40.715 61.0074 40.0826 60.2076 39.2642C59.3892 38.4458 58.7568 37.4972 58.2732 36.4184C57.7896 35.3396 57.5664 34.1678 57.5664 32.9403V12.3317L57.9012 11.9969H62.0862L62.421 12.3317Z" fill="#2A5A9A"/>
<path d="M46.2019 72.8926C46.6669 72.8926 47.1505 72.7996 47.5969 72.6322C48.0619 72.4648 48.4711 72.2416 48.8059 71.944C49.1593 71.6464 49.4383 71.293 49.6615 70.8838C49.8847 70.4746 49.9963 70.0096 49.9963 69.5074C49.9963 68.8936 49.8475 68.3356 49.5499 67.8334C49.2523 67.3312 48.8803 66.8848 48.4339 66.5128C47.9875 66.1409 47.4853 65.8061 46.9459 65.5271C46.4065 65.2481 45.8671 65.0063 45.3277 64.7645C44.6581 64.4855 43.9885 64.2065 43.3375 63.9089C42.6866 63.6113 42.0542 63.2765 41.459 62.8859C40.8638 62.4953 40.2872 62.0303 39.7664 61.4909C39.227 60.9515 38.762 60.3005 38.3342 59.5379C37.6088 58.2545 37.2368 56.8968 37.2368 55.4832C37.2368 54.1626 37.553 52.935 38.1854 51.7632C38.8178 50.5914 39.6548 49.6428 40.715 48.9175C41.5334 48.3595 42.389 47.9503 43.319 47.6899C44.2489 47.4295 45.1975 47.2993 46.1647 47.2993C48.0061 47.2993 49.6615 47.8015 51.1495 48.8245C52.6374 49.8474 53.7348 51.1866 54.4602 52.8606L54.33 53.2884L50.4799 55.6692L49.9777 55.4646C49.7545 54.6276 49.2895 53.865 48.5827 53.1768C47.8759 52.4886 47.0761 52.1538 46.1833 52.1538C45.1231 52.1538 44.2303 52.4328 43.5049 52.9908C42.7796 53.5488 42.4076 54.3114 42.4076 55.26C42.4076 55.9296 42.5378 56.5062 42.7796 56.9898C43.0214 57.4734 43.3747 57.9011 43.8211 58.2731C44.2675 58.6451 44.7697 58.9613 45.3463 59.2403C45.9229 59.5193 46.5181 59.7983 47.1691 60.0773C48.4897 60.6353 49.7545 61.3049 50.9821 62.0861C52.2097 62.8673 53.2326 63.9089 54.0324 65.2295C54.423 65.8805 54.702 66.5315 54.8694 67.2196C55.0368 67.9078 55.1298 68.6146 55.1298 69.34C55.1298 70.6792 54.8136 71.944 54.1812 73.1344C53.5488 74.3248 52.7118 75.292 51.6517 76.0545C50.8333 76.6311 49.9777 77.0775 49.0291 77.3751C48.0991 77.6727 47.1319 77.8215 46.1647 77.8215C45.2161 77.8215 44.3047 77.6913 43.4119 77.4495C42.5378 77.1891 41.7008 76.8357 40.9382 76.3521C40.1756 75.8871 39.4874 75.2919 38.8922 74.6224C38.297 73.9342 37.8134 73.153 37.4414 72.2602L37.6088 71.8324L41.2916 69.6934L41.7566 69.898C42.0356 70.8838 42.5936 71.6278 43.4119 72.1672C44.2861 72.6322 45.1975 72.8926 46.2019 72.8926Z" fill="#ED6877"/>
<path d="M66.4382 56.5619L70.214 48.0618L70.5488 47.8572H75.1057L75.4033 48.3222L68.8748 63.0718V76.8543L68.54 77.1891H64.355L64.0202 76.8543V63.0533L57.4917 48.3036L57.7893 47.8386H62.402L62.6996 48.0432L66.4382 56.5619Z" fill="#2A5A9A"/>
<path d="M89 89H0V0H89V89ZM3.71996 85.28H85.28V3.71996H3.71996V85.28Z" fill="#ED6877"/>
<rect x="21.7458" y="58.6098" width="5.42683" height="5.42682" transform="rotate(45 21.7458 58.6098)" fill="#ED6877"/>
</svg>
