<svg width="24" height="24" viewBox="0 0 24 24" fill="none" xmlns="http://www.w3.org/2000/svg">
<g clip-path="url(#clip0_40_3099)">
<path d="M1 1L23 23" stroke="#2B2B43" stroke-width="2" stroke-linecap="round" stroke-linejoin="round"/>
<path d="M16.72 11.0601C17.5391 11.4598 18.305 11.9604 19 12.5501" stroke="#2B2B43" stroke-width="2" stroke-linecap="round" stroke-linejoin="round"/>
<path d="M5 12.55C6.48208 11.3109 8.26587 10.4862 10.17 10.16" stroke="#2B2B43" stroke-width="2" stroke-linecap="round" stroke-linejoin="round"/>
<path d="M10.71 5.04998C12.8524 4.87735 15.0076 5.13815 17.047 5.8168C19.0864 6.49546 20.9682 7.57806 22.58 8.99998" stroke="#2B2B43" stroke-width="2" stroke-linecap="round" stroke-linejoin="round"/>
<path d="M1.41992 9C2.80709 7.77385 4.39762 6.79922 6.11992 6.12" stroke="#2B2B43" stroke-width="2" stroke-linecap="round" stroke-linejoin="round"/>
<path d="M8.53003 16.11C9.54523 15.3887 10.7597 15.0012 12.005 15.0012C13.2504 15.0012 14.4648 15.3887 15.48 16.11" stroke="#2B2B43" stroke-width="2" stroke-linecap="round" stroke-linejoin="round"/>
<path d="M12 20H12.01" stroke="#2B2B43" stroke-width="2" stroke-linecap="round" stroke-linejoin="round"/>
</g>
<defs>
<clipPath id="clip0_40_3099">
<rect width="24" height="24" fill="white"/>
</clipPath>
</defs>
</svg>
